<?xml version="1.0" encoding="utf-8"?>
<!-- Generator: Adobe Illustrator 27.1.1, SVG Export Plug-In . SVG Version: 6.00 Build 0)  -->
<svg version="1.1" id="Layer_1" xmlns="http://www.w3.org/2000/svg" xmlns:xlink="http://www.w3.org/1999/xlink" x="0px" y="0px"
	 viewBox="0 0 197.1 45.7" style="enable-background:new 0 0 197.1 45.7;" xml:space="preserve">
<style type="text/css">
	.st0{display:none;fill:none;}
	.st1{display:none;}
	.st2{display:inline;}
	.st3{fill:#1C1D23;}
	.st4{fill:#473EC1;}
	.st5{fill:#1C1D23;stroke:#1C1D23;stroke-width:0.25;stroke-miterlimit:10;}
	.st6{fill:#4560CD;}
	.st7{display:inline;fill:#1C1D23;stroke:#1C1D23;stroke-width:0.25;stroke-miterlimit:10;}
</style>
<rect x="385.8" y="-217.7" class="st0" width="268.7" height="40.9"/>
<text transform="matrix(1 0 0 1 385.7809 -185.7037)" style="display:none;enable-background:new    ; font-family:'Neoneon'; font-size:40px; letter-spacing:1;">BELDIMAN</text>
<g class="st1">
	<g class="st2">
		<path class="st3" d="M23.2,22.3c1.3-0.8,2.8-2.5,2.8-6.7c0-2.7-0.6-4.6-2-6.2C22.2,7,20.1,7,16.5,7H8.6C8.3,7,8,7.2,8,7.5v4.9
			C8,12.8,8.3,13,8.6,13h7.9c1.8,0,2.6,1.1,2.6,3.4c0,1.5-0.2,3-2.6,3h-3c-0.9,0-1.7,0.6-1.7,1.7v3c0,1,0.8,1.7,1.7,1.7h2.9
			c1.7,0,2.2,0.1,2.7,1c0.3,0.5,0.5,1.2,0.5,2.3c0,3-1,3.6-3,3.6H13v-3.1c0-0.2-0.3-0.3-0.6-0.3s-0.6,0.1-0.6,0.3v3.6l0,0l0,0v0.5
			H13l0,0h3.7c2.9,0,4.1-1.4,4.1-4.7c0-1.3-0.4-2.2-0.7-2.8c-0.8-1.4-2-1.5-3.7-1.5h-2.9c-0.3,0-0.6-0.3-0.6-0.6v-3
			c0-0.5,0.4-0.6,0.6-0.6h3c3.8,0,3.8-3,3.8-4.2c0-2.8-1.4-4.5-3.8-4.5H9.2V8.1h7.3c3.5,0,5.2,0,6.7,1.9c0.7,0.9,1.7,2.4,1.7,5.5
			c0,4.8-2,5.7-3.3,6.2c-0.2,0.1-0.3,0.3-0.3,0.5s0.2,0.4,0.4,0.5c1.1,0.4,4,1.5,4,7.2c0,3.1-1.2,5-2.1,6c-1.6,1.8-4.6,1.8-6.1,1.8
			H9.2v-21h3c0.2,0,0.3-0.3,0.3-0.6c0-0.3-0.1-0.6-0.3-0.6H8v0.7v0.5v21.7C8,38.7,8.3,39,8.6,39h8.9c1.6,0,5,0,6.9-2.1
			c1.1-1.2,2.4-3.3,2.4-6.8C26.9,25.1,24.7,23.1,23.2,22.3z"/>
		<path class="st3" d="M17.5,39.1H8.6c-0.4,0-0.7-0.3-0.7-0.7v-23h4.3c0.3,0,0.5,0.3,0.5,0.7c0,0.4-0.2,0.7-0.5,0.7H9.3v20.9h8.2
			c1.4,0,4.5,0,6-1.7c0.9-1,2.1-2.9,2.1-5.9c0-5.6-2.9-6.7-3.9-7.1c-0.3-0.1-0.5-0.3-0.5-0.6c0-0.3,0.1-0.6,0.4-0.7
			c1.2-0.5,3.2-1.4,3.2-6.1c0-3-1-4.5-1.7-5.4c-1.5-1.9-3.1-1.9-6.6-1.9H9.3v3.6h7.2c2.5,0,3.9,1.7,3.9,4.6c0,4.3-2.9,4.3-3.9,4.3
			h-3c-0.1,0-0.5,0-0.5,0.5v3c0,0.3,0.2,0.5,0.5,0.5h2.9c1.8,0,3,0.1,3.8,1.6c0.5,0.9,0.7,1.8,0.7,2.9c0,3.4-1.3,4.9-4.3,4.9h-5
			v-4.3c0-0.3,0.3-0.5,0.7-0.5s0.7,0.2,0.7,0.5v2.9h3.6c1.9,0,2.9-0.5,2.9-3.5c0-1-0.3-1.8-0.5-2.2c-0.4-0.8-0.8-0.9-2.5-0.9h-2.9
			c-1,0-1.9-0.8-1.9-1.8v-3c0-1.2,1-1.9,1.9-1.9h3c2.3,0,2.5-1.4,2.5-2.9c0-2.2-0.8-3.2-2.5-3.2h-8c-0.4,0-0.7-0.3-0.7-0.7V7.5
			c0-0.4,0.3-0.7,0.7-0.7h7.9c3.6,0,5.8,0,7.7,2.4c1.4,1.6,2,3.6,2,6.3c0,3.3-0.9,5.5-2.7,6.7c1.7,1,3.6,3.1,3.6,7.8
			c0,3.5-1.3,5.6-2.5,6.9C22.6,39.1,19.2,39.1,17.5,39.1z M8.2,15.7v22.7c0,0.3,0.2,0.5,0.5,0.5h8.9c1.6,0,5,0,6.8-2.1
			c1.1-1.2,2.4-3.3,2.4-6.7c0-4.7-2-6.8-3.6-7.7L23,22.3l0.2-0.1c1.9-1.1,2.8-3.3,2.8-6.6c0-2.6-0.6-4.6-1.9-6.2
			c-1.8-2.3-4-2.3-7.5-2.3h-8c-0.3,0-0.5,0.2-0.5,0.5v4.9c0,0.3,0.2,0.5,0.5,0.5h7.9c1.8,0,2.7,1.2,2.7,3.5c0,1.5-0.2,3.1-2.7,3.1
			h-3c-0.8,0-1.6,0.6-1.6,1.6v3c0,0.9,0.7,1.6,1.6,1.6h2.9c1.7,0,2.2,0.1,2.8,1c0.3,0.5,0.6,1.3,0.6,2.4c0,3.1-1.1,3.7-3.1,3.7h-3.8
			v-3.2c0-0.1-0.2-0.2-0.5-0.2s-0.5,0.1-0.5,0.2v3.6l0,0v0.4h4.7c2.8,0,4-1.4,4-4.6c0-1-0.2-2-0.7-2.8c-0.8-1.4-1.9-1.5-3.6-1.5
			h-2.9c-0.4,0-0.7-0.3-0.7-0.7v-3c0-0.5,0.4-0.7,0.7-0.7h3c3.7,0,3.7-2.9,3.7-4c0-2.8-1.3-4.4-3.7-4.4H9.1V8h7.5c3.5,0,5.2,0,6.8,2
			c0.7,0.9,1.7,2.5,1.7,5.6c0,4.9-2.1,5.8-3.3,6.4c-0.2,0.1-0.2,0.3-0.2,0.4c0,0.2,0.1,0.3,0.3,0.4c1.1,0.4,4.1,1.6,4.1,7.4
			c0,3.1-1.2,5-2.1,6.1c-1.6,1.8-4.7,1.8-6.2,1.8H9.1V16.6h3.2c0.1,0,0.2-0.2,0.2-0.5c0-0.3-0.1-0.5-0.2-0.5L8.2,15.7L8.2,15.7z"/>
	</g>
	<g class="st2">
		<path class="st3" d="M52.5,38.7C52.4,38.9,52.2,39,52,39h-5.8H46c-0.1,0-0.2-0.1-0.2-0.1c-0.1-0.1-0.1-0.1-0.1-0.2
			c0,0-0.1-0.1-0.1-0.2l-0.8-4.4l-0.3-1.8H42c-0.3,0-0.6-0.3-0.6-0.6c0-0.3,0.3-0.6,0.6-0.6h2.9c0.3,0,0.6,0.2,0.6,0.5l0.4,2.2
			l0.7,4h4.6l-2.6-10.9L44.2,8.1h-5.3l-4.5,18.8l-2.6,10.9h4.7l1.6-8.8c0.3-1.8,1-2.8,3.4-2.8h0.1h0.1h1.8l-1.8-9.7l-1.2,6.8
			c-0.1,0.3-0.4,0.5-0.7,0.4s-0.5-0.3-0.5-0.6l1.8-9.9c0-0.3,0.3-0.4,0.6-0.4s0.5,0.2,0.5,0.4l2.5,13.4v0.1v0.2
			c0,0.1-0.1,0.2-0.1,0.2c0,0.1-0.1,0.1-0.2,0.2c-0.1,0-0.1,0.1-0.2,0.1H44h-2.5h-0.1h-0.1c-1.6,0-2,0.4-2.2,1.9l-1.7,9.2
			c0,0,0,0.1,0,0.2c0,0.1-0.1,0.2-0.2,0.2C37.1,39,37,39,37,39h-0.2h-5.9c-0.2,0-0.4-0.1-0.4-0.2s-0.2-0.3-0.1-0.5l2.8-11.6
			l4.6-19.2C37.9,7.2,38.2,7,38.4,7h6.2c0.3,0,0.5,0.2,0.5,0.4l4.6,19.2l2.8,11.6C52.6,38.3,52.6,38.6,52.5,38.7z"/>
		<path class="st3" d="M52,39.1h-6c-0.1,0-0.2-0.1-0.2-0.1s0,0-0.1,0l0,0c-0.1-0.1-0.1-0.2-0.2-0.2v-0.1l0,0v-0.1l-1.1-6.1H42
			c-0.4,0-0.7-0.3-0.7-0.7c0-0.4,0.3-0.7,0.7-0.7h2.9c0.4,0,0.7,0.2,0.8,0.6l0.4,2.2l0.7,3.9h4.4L48.6,27L44.1,8.2H39l-4.5,18.7
			L32,37.7h4.4L38,29c0.3-1.8,1-3,3.5-3h1.8l-1.6-8.9l-1.1,6.1c-0.1,0.4-0.4,0.6-0.8,0.5c-0.6,0-0.8-0.3-0.8-0.7l1.8-9.9
			c0-0.3,0.3-0.5,0.7-0.5c0.3,0,0.6,0.2,0.7,0.6l2.5,13.5v0.2c0,0.1-0.1,0.2-0.1,0.2s0,0,0,0.1c-0.1,0.1-0.2,0.2-0.2,0.2
			c-0.1,0-0.2,0.1-0.2,0.1h-2.7c-1.6,0-1.9,0.4-2.1,1.8l-1.7,9.2c0,0,0,0,0,0.1c0,0,0,0,0,0.1l0,0c0,0-0.1,0.2-0.2,0.2
			c0,0-0.2,0.2-0.3,0.2h-6c-0.2,0-0.4-0.1-0.5-0.3s-0.2-0.4-0.2-0.6l2.8-11.6l4.6-19.2c0.1-0.3,0.4-0.5,0.7-0.5h6.2
			c0.3,0,0.6,0.2,0.7,0.5l4.6,19.2l2.8,11.6c0,0.1,0,0.4-0.1,0.6C52.5,39,52.2,39.1,52,39.1z M45.9,38.7
			C45.9,38.7,46,38.8,45.9,38.7c0.1,0.1,0.1,0.1,0.2,0.1h0.1H52c0.1,0,0.3-0.1,0.3-0.2l0,0c0-0.1,0.1-0.3,0.1-0.4l-2.8-11.6L45,7.4
			C44.9,7.2,44.8,7,44.6,7h-6.2c-0.2,0-0.4,0.2-0.5,0.4l-7.4,30.8c0,0.1,0,0.3,0.1,0.4c0.1,0.1,0.2,0.2,0.3,0.2h6c0,0,0.1,0,0.1-0.1
			l0,0l0.1-0.1c0,0,0,0,0-0.1c0,0,0,0,0-0.1l1.7-9.3c0.3-1.5,0.7-2,2.3-2h0.1h0.1h2.5h0.1C44,27.1,44,27,44,27s0-0.1,0.1-0.1
			c0,0,0-0.1,0.1-0.1v-0.2L42,13.2c0-0.2-0.2-0.3-0.4-0.3s-0.4,0.1-0.5,0.3l-1.8,9.9c-0.1,0.3,0.2,0.5,0.4,0.5c0.1,0,0.2,0,0.3-0.1
			s0.2-0.2,0.2-0.3l1.4-7.4l1.9,10.5h-2.1c-2.3,0-2.9,1.1-3.2,2.7l-1.6,8.9h-4.9l2.7-11.1L38.8,8h5.5l7.2,29.9h-4.9l-0.8-4.1
			l-0.4-2.2c0-0.2-0.3-0.4-0.5-0.4h-3c-0.3,0-0.5,0.2-0.5,0.5c0,0.3,0.2,0.5,0.5,0.5h2.6l0.3,1.9l0.8,4.4l0,0v0.1
			C45.9,38.6,45.9,38.7,45.9,38.7z"/>
	</g>
	<g class="st2">
		<path class="st3" d="M57.7,39c-0.3,0-0.6-0.3-0.6-0.6s0.3-0.6,0.6-0.6h12.5v-4.5h-10c-1.4,0-3-0.4-3-3.3V7.5
			c0-0.3,0.3-0.6,0.6-0.6h5.9c0.3,0,0.6,0.3,0.6,0.6v21.4c0,0.3-0.3,0.6-0.6,0.6s-0.6-0.3-0.6-0.6V8h-4.7v22c0,2,0.7,2.1,1.9,2.1
			h10.6c0.3,0,0.6,0.3,0.6,0.6v5.7c0,0.3-0.3,0.6-0.6,0.6C70.9,39,57.7,39,57.7,39z"/>
		<path class="st3" d="M70.8,39.1H57.7c-0.4,0-0.7-0.3-0.7-0.7s0.3-0.7,0.7-0.7h12.4v-4.3h-9.9C58.8,33.4,57,33,57,30V7.5
			c0-0.4,0.3-0.7,0.7-0.7h5.9c0.4,0,0.7,0.3,0.7,0.7v21.4c0,0.4-0.3,0.7-0.7,0.7c-0.4,0-0.7-0.3-0.7-0.7V8.2h-4.5V30
			c0,1.9,0.7,2,1.8,2h10.6c0.4,0,0.7,0.3,0.7,0.7v5.7C71.5,38.8,71.2,39.1,70.8,39.1z M57.7,37.9c-0.2,0-0.5,0.2-0.5,0.5
			s0.2,0.5,0.5,0.5h13.1c0.3,0,0.5-0.2,0.5-0.5v-5.7c0-0.3-0.2-0.5-0.5-0.5H60.2c-1.2,0-2-0.2-2-2.3V8h5v0.1V29
			c0,0.3,0.2,0.5,0.5,0.5c0.2,0,0.5-0.2,0.5-0.5V7.6c0-0.3-0.2-0.5-0.5-0.5h-5.9c-0.2,0-0.5,0.2-0.5,0.5V30c0,2.8,1.6,3.2,2.9,3.2
			h10.2V38L57.7,37.9L57.7,37.9z"/>
	</g>
	<g class="st2">
		<path class="st3" d="M95.8,22.6c0,6.7-1.4,11.4-4.4,14.2c-1.1,1-3.1,2.1-6.3,2.1h-7.7c-0.3,0-0.6-0.3-0.6-0.6s0.3-0.6,0.6-0.6h7.7
			c2.8,0,4.6-1,5.5-1.8c2.7-2.6,4.1-7,4.1-13.4c0-4.3-0.7-10-4.1-12.6c-2.1-1.7-4.4-1.8-7.7-1.8h-5v22.1c0,2,0.7,2.1,1.9,2.1h3.3
			l0,0h1.7c1,0,2.3-0.2,2.8-1.6c0.6-1.7,0.7-5.7,0.7-7.6c0-9.7-1.6-9.7-3.5-9.7h-1.2v15.7c0,0.3-0.2,0.6-0.5,0.6s-0.6-0.3-0.6-0.6
			V12.9c0-0.3,0.3-0.6,0.6-0.6h1.7c3.2,0,4.6,1.6,4.6,10.8c0,0.2,0,5.7-0.8,8c-0.4,1.1-1.3,2.4-3.9,2.4H83h-3.4c-1.4,0-3-0.4-3-3.3
			V7.5c0-0.3,0.3-0.6,0.6-0.6h5.5c3.4,0,6,0.1,8.4,2C94.3,11.3,95.8,16.1,95.8,22.6z"/>
		<path class="st3" d="M85.1,39.1h-7.7c-0.4,0-0.7-0.3-0.7-0.7s0.3-0.7,0.7-0.7h7.7c3,0,4.7-1.1,5.5-1.8c2.7-2.6,4-7,4-13.3
			c0-4.3-0.7-9.9-4.1-12.5c-2.1-1.7-4.4-1.8-7.6-1.8h-4.8v22c0,1.9,0.7,2,1.8,2H85c1,0,2.2-0.2,2.7-1.5c0.6-1.6,0.7-5.5,0.7-7.6
			c0-4.4-0.3-7.1-1-8.4c-0.6-1.1-1.4-1.1-2.3-1.1l0,0H84v15.6c0,0.4-0.3,0.7-0.7,0.7c-0.4,0-0.7-0.3-0.7-0.7V12.9
			c0-0.4,0.3-0.7,0.7-0.7H85c3.3,0,4.8,1.6,4.8,11c0,0.1,0,5.6-0.8,8c-0.4,1.2-1.4,2.5-4,2.5h-5.1c-1.4,0-3.2-0.4-3.2-3.4V7.5
			c0-0.4,0.3-0.7,0.7-0.7h5.5c3.4,0,6,0.1,8.5,2.1c3,2.4,4.6,7.1,4.6,13.7c0,6.8-1.5,11.5-4.5,14.3C90.4,37.9,88.4,39.1,85.1,39.1z
			 M77.4,37.9c-0.3,0-0.5,0.2-0.5,0.5s0.2,0.5,0.5,0.5h7.7c3.2,0,5.2-1.1,6.2-2.1c2.9-2.8,4.4-7.4,4.4-14.1c0-6.5-1.6-11.2-4.5-13.5
			c-2.4-1.9-4.9-2-8.3-2h-5.5c-0.3,0-0.5,0.2-0.5,0.5v22.7c0,2.8,1.6,3.2,2.9,3.2h5.1c2,0,3.2-0.8,3.8-2.3c0.7-2.3,0.8-7.9,0.8-7.9
			c0-10-1.8-10.7-4.5-10.7h-1.7c-0.2,0-0.5,0.2-0.5,0.5v16.3c0,0.3,0.2,0.5,0.5,0.5c0.2,0,0.4-0.2,0.4-0.5V13.4H85l0,0
			c0.9,0,1.9,0,2.5,1.3c0.7,1.4,1,4.1,1,8.5c0,0.6,0,5.6-0.7,7.7c-0.5,1.5-1.9,1.7-2.9,1.7h-5.1c-1.2,0-2-0.2-2-2.3V8h5.1
			c3.3,0,5.6,0.1,7.8,1.9c3.5,2.7,4.2,8.4,4.2,12.7c0,6.4-1.3,10.8-4.1,13.5C90,36.8,88.3,38,85.2,38L77.4,37.9L77.4,37.9z"/>
	</g>
	<g class="st2">
		<path class="st3" d="M101.8,39c-0.3,0-0.6-0.3-0.6-0.6V17c0-2.9,1.6-3.3,3-3.3h0.7c0.3,0,0.6,0.3,0.6,0.6s-0.3,0.6-0.6,0.6h-0.7
			c-1.1,0-1.9,0.2-1.9,2.1v20.8h4.6V8.1h-4.6V11c0,0.3-0.3,0.6-0.6,0.6s-0.6-0.3-0.6-0.6V7.5c0-0.3,0.3-0.6,0.6-0.6h5.8
			c0.3,0,0.6,0.3,0.6,0.6v30.8c0,0.3-0.3,0.6-0.6,0.6h-5.7V39z"/>
		<path class="st3" d="M107.6,39.1h-5.8c-0.4,0-0.7-0.3-0.7-0.7V17c0-3.1,1.8-3.4,3.1-3.4h0.7c0.4,0,0.7,0.3,0.7,0.7
			S105.3,15,105,15h-0.7c-1.1,0-1.7,0.1-1.7,2v20.7h4.4V8.2h-4.4V11c0,0.4-0.3,0.7-0.7,0.7s-0.7-0.3-0.7-0.7V7.5
			c0-0.4,0.3-0.7,0.7-0.7h5.8c0.4,0,0.7,0.3,0.7,0.7v30.8C108.3,38.8,108,39.1,107.6,39.1z M104.2,13.8c-1.3,0-2.9,0.4-2.9,3.2v21.4
			c0,0.3,0.2,0.5,0.5,0.5h5.8c0.3,0,0.5-0.2,0.5-0.5V7.5c0-0.3-0.2-0.5-0.5-0.5h-5.8c-0.3,0-0.5,0.2-0.5,0.5V11
			c0,0.3,0.2,0.5,0.5,0.5s0.5-0.2,0.5-0.5V8h4.9v29.9h-4.9V17c0-2.1,0.9-2.3,2-2.3h0.7c0.3,0,0.5-0.2,0.5-0.5s-0.2-0.5-0.5-0.5h-0.8
			V13.8z"/>
	</g>
	<g class="st2">
		<path class="st4" d="M137.5,7.5v30.8c0,0.3-0.3,0.6-0.6,0.6h-6c-0.3,0-0.6-0.3-0.6-0.6V27.5v-0.7c0-2.3,0-3.3-1.1-4.7l-10-12.4
			c-0.1-0.1-0.2-0.3-0.4-0.4c-0.6-0.7-0.9-1.2-2.4-1.2h-1.7v29.7h4.5V18.5l0,0c0-0.1,0-0.2,0-0.2c0-0.1,0.1-0.1,0.2-0.2
			s0.2-0.1,0.2-0.1s0.1,0,0.2,0s0.2,0,0.2,0.1c0.1,0,0.2,0.1,0.2,0.1l0,0l5.2,6.3c0.2,0.3,0.2,0.6-0.1,0.8c-0.3,0.2-0.6,0.2-0.8-0.1
			l-4.1-5.1v18.3c0,0.3-0.3,0.6-0.6,0.6h-5.7c-0.3,0-0.6-0.3-0.6-0.6V7.5c0-0.3,0.3-0.6,0.6-0.6h2.3c2,0,2.6,0.8,3.3,1.6
			c0.1,0.1,0.2,0.3,0.4,0.4l10.1,12.4c1.4,1.7,1.4,3.1,1.4,5.4v0.7v10.3h4.8V8.1h-1.7c-1.8,0-1.8,0-2.3,0.9
			c-0.4,0.7-3.3,5.5-3.4,5.6c-0.2,0.3-0.5,0.4-0.8,0.2s-0.4-0.5-0.2-0.8c0.1-0.2,2.9-4.9,3.4-5.6c0.9-1.4,1.4-1.4,3.3-1.4h2.2
			C137.2,7,137.5,7.2,137.5,7.5z"/>
		<path class="st4" d="M136.9,39.1h-6c-0.4,0-0.7-0.3-0.7-0.7V26.6c0-2.2,0-3.1-1.1-4.4l-10-12.4c-0.1-0.1-0.2-0.2-0.2-0.3
			s-0.1-0.1-0.1-0.2c-0.6-0.7-0.9-1.1-2.3-1.1h-1.6v29.4h4.3V18.5c0-0.1,0-0.2,0-0.3c0-0.1,0.1-0.2,0.2-0.2c0,0,0.2-0.2,0.3-0.2l0,0
			h0.1c0.1,0,0.2,0,0.3,0.1l0,0c0.1,0,0.2,0.1,0.2,0.2l0,0l5.1,6.3c0.1,0.2,0.2,0.4,0.1,0.5c0,0.2-0.1,0.3-0.3,0.4
			c-0.3,0.2-0.8,0.2-1-0.1l-3.9-4.8v17.9c0,0.4-0.3,0.7-0.7,0.7h-5.7c-0.4,0-0.7-0.3-0.7-0.7V7.5c0-0.4,0.3-0.7,0.7-0.7h2.3
			c2,0,2.7,0.8,3.3,1.5l0.1,0.1c0.1,0.1,0.2,0.3,0.3,0.4L130,21.3c1.4,1.7,1.4,3.1,1.4,5.5v0.7v10.2h4.5V8.2h-1.7
			c-1.5,0-1.5,0-2,0.8c-0.3,0.4-1.3,2.2-2.2,3.7c-1.1,1.9-1.1,1.9-1.2,1.9c-0.1,0.1-0.2,0.2-0.4,0.3c-0.2,0-0.4,0-0.5-0.1
			c-0.3-0.2-0.4-0.6-0.2-0.9c0.1-0.1,1-1.7,1.9-3.1c0.7-1.1,1.3-2.2,1.5-2.5c0.9-1.5,1.5-1.5,3.4-1.5h2.2c0.4,0,0.7,0.3,0.7,0.7
			v30.8C137.6,38.8,137.3,39.1,136.9,39.1z M114.5,8h1.9c1.5,0,1.9,0.5,2.5,1.2c0.1,0.1,0.1,0.1,0.2,0.2c0.1,0.1,0.1,0.2,0.2,0.3
			l10.1,12.4c1.1,1.3,1.1,2.4,1.1,4.6v11.8c0,0.3,0.2,0.5,0.5,0.5h6c0.3,0,0.5-0.2,0.5-0.5v-31c0-0.2-0.2-0.5-0.5-0.5h-2.2
			c-1.9,0-2.3,0-3.2,1.3c-0.2,0.3-0.8,1.4-1.5,2.5c-0.9,1.5-1.8,3-1.9,3.1c-0.1,0.2,0,0.5,0.2,0.6c0.1,0.1,0.2,0.1,0.3,0
			c0.1,0,0.2-0.1,0.3-0.2c0-0.1,0.6-0.9,1.1-1.9c0.9-1.5,2-3.3,2.2-3.7c0.6-0.9,0.7-0.9,2.2-0.9h2v29.9h-5v-0.1V27.3v-0.7
			c0-2.3,0-3.7-1.3-5.3L120,9c-0.1-0.1-0.3-0.3-0.4-0.4l-0.1-0.1c-0.6-0.7-1.2-1.5-3.1-1.5h-2.3c-0.3,0-0.5,0.2-0.5,0.5v30.8
			c0,0.3,0.2,0.5,0.5,0.5h5.7c0.3,0,0.5-0.2,0.5-0.5V19.8l4.3,5.4c0.1,0.1,0.2,0.1,0.3,0.2c0.1,0,0.2,0,0.3-0.1
			c0.1-0.1,0.1-0.2,0.2-0.3c0-0.1,0-0.2-0.1-0.3l-5.2-6.4l0,0H120l0,0c-0.1,0-0.1-0.1-0.2-0.1l0,0h-0.1c0,0-0.1,0-0.1,0.1l0,0
			l-0.1,0.1c0,0,0,0.1,0,0.2v19.5h-4.8V8H114.5z"/>
	</g>
	<g class="st2">
		<path class="st4" d="M164.9,38.7c-0.1,0.1-0.3,0.2-0.4,0.2h-5.8h-0.2c-0.1,0-0.2-0.1-0.2-0.1c-0.1-0.1-0.1-0.1-0.1-0.2
			c0,0-0.1-0.1-0.1-0.2l-0.8-4.4l-0.3-1.8h-2.5c-0.3,0-0.6-0.3-0.6-0.6c0-0.3,0.3-0.6,0.6-0.6h2.9c0.3,0,0.6,0.2,0.6,0.5l0.4,2.2
			l0.7,4h4.6l-2.6-10.9l-4.5-18.7h-5.3l-4.5,18.8l-2.6,10.9h4.7l1.6-8.8c0.3-1.8,1-2.8,3.4-2.8h0.1h0.1h1.8l-1.8-9.7l-1.2,6.8
			c-0.1,0.3-0.4,0.5-0.7,0.4s-0.5-0.3-0.5-0.6l1.8-9.9c0-0.3,0.3-0.4,0.6-0.4s0.5,0.2,0.5,0.4l2.5,13.4v0.1v0.2
			c0,0.1-0.1,0.2-0.1,0.2c0,0.1-0.1,0.1-0.2,0.2c-0.1,0-0.1,0.1-0.2,0.1h-0.1H154h-0.1h-0.1c-1.6,0-2,0.4-2.2,1.9l-1.7,9.2
			c0,0,0,0.1,0,0.2c0,0.1-0.1,0.2-0.2,0.2c-0.1,0.1-0.2,0.1-0.2,0.1h-0.2h-5.9c-0.2,0-0.4-0.1-0.4-0.2c-0.1-0.1-0.2-0.3-0.1-0.5
			l2.8-11.6l4.6-19.2c0.1-0.3,0.3-0.4,0.6-0.4h6.2c0.3,0,0.5,0.2,0.5,0.4l4.6,19.2l2.8,11.6C165,38.3,165,38.6,164.9,38.7z"/>
		<path class="st4" d="M164.4,39.1h-6c-0.1,0-0.2-0.1-0.2-0.1s0,0-0.1,0l0,0c-0.1-0.1-0.1-0.2-0.2-0.2v-0.1l0,0v-0.1l-1.1-6.1h-2.4
			c-0.4,0-0.7-0.3-0.7-0.7c0-0.4,0.3-0.7,0.7-0.7h2.9c0.2,0,0.4,0,0.5,0.2c0.1,0.1,0.2,0.3,0.2,0.4l0.4,2.2l0.7,3.9h4.4l-7.1-29.4
			h-5.1l-4.5,18.7l-2.6,10.8h4.4l1.6-8.7c0.3-1.8,1-3,3.5-3h1.8l-1.6-8.9l-1.1,6.1c0,0.2-0.1,0.3-0.3,0.4s-0.3,0.1-0.5,0.1
			s-0.4-0.2-0.5-0.3c-0.1-0.1-0.1-0.3-0.1-0.5l1.8-9.9c0-0.3,0.3-0.5,0.7-0.5c0.3,0,0.6,0.2,0.7,0.6l2.5,13.5V27
			c0,0.1-0.1,0.2-0.1,0.2s0,0,0,0.1c-0.1,0.1-0.2,0.2-0.2,0.2c-0.1,0-0.2,0.1-0.2,0.1h-2.7c-1.6,0-1.9,0.4-2.1,1.8l-1.7,9.2
			c0,0,0,0,0,0.1c0,0,0,0,0,0.1l0,0c0,0-0.1,0.2-0.2,0.2c-0.1,0-0.2,0.2-0.3,0.2h-6c-0.2,0-0.4-0.1-0.5-0.3s-0.2-0.4-0.2-0.6
			l7.4-30.8c0.1-0.3,0.4-0.5,0.7-0.5h6.2c0.3,0,0.6,0.2,0.7,0.5l4.6,19.2l2.8,11.6c0,0.1,0,0.4-0.1,0.6
			C164.9,39,164.6,39.1,164.4,39.1z M158.3,38.7C158.3,38.7,158.4,38.8,158.3,38.7c0.1,0.1,0.1,0.1,0.2,0.1h0.1h5.8
			c0.1,0,0.3-0.1,0.3-0.2c0-0.1,0.1-0.3,0.1-0.4L162,26.6l-4.6-19.2C157.3,7.2,157.2,7,157,7h-6.2c-0.2,0-0.4,0.2-0.5,0.4L143,38.3
			c0,0.1,0,0.3,0.1,0.4c0.1,0.1,0.2,0.2,0.3,0.2h6c0,0,0.1,0,0.1-0.1l0,0l0.1-0.1c0,0,0,0,0-0.1c0,0,0,0,0-0.1l1.7-9.3
			c0.3-1.5,0.7-2,2.3-2h0.1h0.1h2.5c0,0,0.1,0,0.1-0.1c0.1,0,0.1-0.1,0.1-0.1s0-0.1,0.1-0.1c0,0,0-0.1,0.1-0.1v-0.2l-2.5-13.4
			c0-0.2-0.2-0.3-0.4-0.3s-0.4,0.1-0.5,0.3l-1.8,9.9c0,0.1,0,0.2,0.1,0.3c0.1,0.1,0.2,0.2,0.3,0.2s0.2,0,0.3-0.1s0.2-0.2,0.2-0.3
			l1.4-7.4l1.9,10.5h-2.1c-2.3,0-2.9,1.1-3.2,2.7l-1.6,8.9H144l2.7-11.1L151.2,8h5.5v0.1l7.2,29.8H159v-0.1l-0.7-4l-0.4-2.2
			c0-0.1-0.1-0.2-0.2-0.3c-0.1-0.1-0.2-0.1-0.3-0.1h-3c-0.3,0-0.5,0.2-0.5,0.5c0,0.3,0.2,0.5,0.5,0.5h2.6l0.3,1.9l0.8,4.4l0,0v0.1
			C158.3,38.6,158.3,38.7,158.3,38.7z"/>
	</g>
	<g class="st2">
		<path class="st4" d="M170.7,8.1v29.7h4.8V18.7v-0.1c0-0.1,0-0.2,0.1-0.2c0-0.1,0.1-0.1,0.2-0.2c0.1,0,0.1-0.1,0.2-0.1h0.2
			c0.1,0,0.2,0,0.2,0.1c0.1,0,0.1,0.1,0.2,0.2l0.1,0.1l8.9,17l0.6,1c0.6,0.9,1.2,1.4,3,1.4h2c0.3,0,0.5,0.3,0.5,0.6
			s-0.2,0.6-0.5,0.6h-2c-1.9,0-3.1-0.6-4-2l-0.6-1l0,0L176.7,21v17.4c0,0.3-0.3,0.6-0.6,0.6h-6c-0.2,0-0.3-0.1-0.4-0.2
			c-0.1-0.1-0.2-0.3-0.2-0.4V7.5c0-0.3,0.3-0.6,0.6-0.6h4.5c2.1,0,3,0.9,3.8,2.4l12,21.8v-23h-5v6.7c0,0.3-0.3,0.6-0.6,0.6
			s-0.6-0.3-0.6-0.6V7.5c0-0.3,0.3-0.6,0.6-0.6h6.1c0.3,0,0.5,0.3,0.5,0.6v25.8v0.1c0,0.1,0,0.2-0.1,0.2c0,0.1-0.1,0.1-0.2,0.2
			c-0.1,0-0.1,0.1-0.2,0.1h-0.2c-0.1,0-0.2,0-0.2-0.1c-0.1,0-0.2-0.1-0.2-0.2v-0.1L177.5,9.9c-0.7-1.2-1.3-1.8-2.8-1.8
			C174.7,8.1,170.7,8.1,170.7,8.1z"/>
		<path class="st4" d="M191.1,39.1h-2c-2,0-3.1-0.6-4.1-2l-0.7-1l0,0l-7.6-14.5v16.9c0,0.4-0.3,0.7-0.7,0.7h-6
			c-0.2,0-0.4-0.1-0.5-0.2c-0.1-0.1-0.2-0.3-0.2-0.5v-31c0-0.4,0.3-0.7,0.7-0.7h4.5c2.1,0,3.1,0.9,3.9,2.4l11.8,21.4V8.2h-4.7v6.6
			c0,0.4-0.3,0.7-0.7,0.7s-0.7-0.3-0.7-0.7V7.5c0-0.4,0.3-0.7,0.7-0.7h6.1c0.4,0,0.7,0.3,0.7,0.7v25.9c0,0.1,0,0.2-0.1,0.3
			c0,0.1-0.1,0.2-0.2,0.2l0,0c-0.1,0-0.1,0.1-0.2,0.1h-0.2c-0.1,0-0.2,0-0.3-0.1c0,0-0.2-0.1-0.2-0.2v-0.1l-13-23.7
			c-0.7-1.2-1.2-1.7-2.7-1.7h-3.8v29.4h4.5v-19c0-0.1,0-0.2,0.1-0.3c0-0.1,0.1-0.2,0.2-0.2l0,0c0.1,0,0.1-0.1,0.2-0.1h0.2
			c0.1,0,0.2,0,0.3,0.1c0.1,0,0.2,0.1,0.2,0.2l0.1,0.1l8.9,17l0.6,1c0.6,0.9,1.2,1.4,2.9,1.4h2c0.4,0,0.7,0.3,0.7,0.7
			C191.8,38.8,191.5,39.1,191.1,39.1z M184.6,35.9l0.6,1c0.9,1.4,2,1.9,3.9,1.9h2c0.2,0,0.4-0.2,0.4-0.5s-0.2-0.5-0.4-0.5h-2
			c-1.8,0-2.5-0.5-3.1-1.5l-0.6-1l-8.9-17l-0.1-0.1l-0.1-0.1c-0.1,0-0.1-0.1-0.2-0.1h-0.2c0,0,0,0-0.1,0h-0.1l-0.1,0.1
			c0,0.1,0,0.1,0,0.2v19.3h-5V8h4.1c1.6,0,2.2,0.6,3,1.8l13.1,23.8l0.1,0.1c0.1,0,0.1,0.1,0.2,0.1h0.2c0,0,0,0,0.1,0h0.1l0.1-0.1
			c0-0.1,0.1-0.1,0.1-0.2v-26c0-0.3-0.2-0.5-0.4-0.5H185c-0.2,0-0.5,0.2-0.5,0.5v7.3c0,0.3,0.2,0.5,0.5,0.5s0.5-0.2,0.5-0.5V8h5.2
			v23.6L178.4,9.4c-0.8-1.4-1.7-2.3-3.7-2.3h-4.5c-0.2,0-0.5,0.2-0.5,0.5v30.8c0,0.1,0,0.3,0.1,0.3c0.1,0.1,0.2,0.1,0.3,0.1h6
			c0.3,0,0.5-0.2,0.5-0.5V20.5L184.6,35.9z"/>
	</g>
</g>
<g>
	<path class="st5" d="M31.8,38.6c-0.3,0-0.6-0.3-0.6-0.6V28l0,0c0-1.9,1.5-3.4,3.5-3.4h0.1h9.4v-3.9h-6.4c-0.3,0-0.6-0.3-0.6-0.6v-7
		c0-0.3,0.3-0.6,0.6-0.6h8.5V8.3H32.4v14.5c0,0.3-0.3,0.5-0.6,0.5c-0.3,0-0.6-0.2-0.6-0.5v-15c0-0.3,0.3-0.6,0.6-0.6h15
		c0.3,0,0.6,0.3,0.6,0.6V13c0,0.3-0.3,0.6-0.6,0.6h-8.5v5.9h6.4c0.3,0,0.6,0.3,0.6,0.6v5.1c0,0.3-0.3,0.5-0.6,0.5h-9.9
		c-1.3,0-2.4,1.1-2.4,2.4l0,0v9.4h13.9v-4.2h-8.5c-0.3,0-0.6-0.3-0.6-0.6v-3.9c0-0.3,0.3-0.6,0.6-0.6s0.6,0.3,0.6,0.6v3.3h8.5
		c0.3,0,0.6,0.3,0.6,0.6V38c0,0.3-0.3,0.6-0.6,0.6H31.8z"/>
	<g>
		<path class="st3" d="M22.5,22.2c1.3-0.8,2.8-2.5,2.8-6.7c0-2.7-0.6-4.6-2-6.2C21.4,7,19.3,7,15.7,7H8C7.7,7,7.4,7.3,7.4,7.6v4.9
			C7.4,12.7,7.6,13,8,13h7.9c1.8,0,2.6,1.1,2.6,3.4c0,1.5-0.2,3-2.6,3h-3c-0.9,0-1.7,0.6-1.7,1.7v3c0,1,0.8,1.7,1.7,1.7h2.9
			c1.7,0,2.2,0.1,2.7,1c0.3,0.5,0.5,1.2,0.5,2.3c0,3-1,3.6-3,3.6h-3.7v-3.1c0-0.2-0.3-0.3-0.6-0.3s-0.6,0.1-0.6,0.3v3.6l0,0l0,0v0.5
			h1.2l0,0H16c2.9,0,4.1-1.4,4.1-4.7c0-1.3-0.4-2.2-0.7-2.8c-0.8-1.4-2-1.5-3.7-1.5h-2.9c-0.3,0-0.6-0.3-0.6-0.6v-3
			c0-0.5,0.4-0.6,0.6-0.6h3c3.8,0,3.8-3,3.8-4.2c0-2.8-1.4-4.5-3.8-4.5H8.5V8h7.3c3.5,0,5.2,0,6.7,1.9c0.7,0.9,1.7,2.4,1.7,5.5
			c0,4.8-2,5.7-3.3,6.2c-0.2,0.1-0.3,0.3-0.3,0.5s0.2,0.4,0.4,0.5c1.1,0.4,4,1.5,4,7.2c0,3.1-1.2,5-2.1,6c-1.6,1.8-4.6,1.8-6.1,1.8
			H8.5v-21h3c0.2,0,0.3-0.3,0.3-0.6c0-0.3-0.1-0.6-0.3-0.6H7.4v0.7v0.5v21.7c0,0.3,0.3,0.6,0.6,0.6h8.9c1.6,0,5,0,6.9-2.1
			c1.1-1.2,2.4-3.3,2.4-6.8C26.2,25,24.1,23,22.5,22.2z"/>
		<path class="st3" d="M16.9,39H8c-0.4,0-0.7-0.3-0.7-0.7v-23h4.3c0.3,0,0.5,0.3,0.5,0.7c0,0.4-0.2,0.7-0.5,0.7H8.7v20.9h8.2
			c1.4,0,4.5,0,6-1.7c0.9-1,2.1-2.9,2.1-5.9c0-5.6-2.9-6.7-3.9-7.1c-0.3-0.1-0.5-0.3-0.5-0.6c0-0.3,0.1-0.6,0.4-0.7
			c1.2-0.5,3.2-1.4,3.2-6.1c0-3-1-4.5-1.7-5.4c-1.5-1.9-3.1-1.9-6.6-1.9H8.7v3.6h7.2c2.5,0,3.9,1.7,3.9,4.6c0,4.3-2.9,4.3-3.9,4.3
			h-3c-0.1,0-0.5,0-0.5,0.5v3c0,0.3,0.2,0.5,0.5,0.5h2.9c1.8,0,3,0.1,3.8,1.6c0.5,0.9,0.7,1.8,0.7,2.9c0,3.4-1.3,4.9-4.3,4.9h-5
			v-4.3c0-0.3,0.3-0.5,0.7-0.5s0.7,0.2,0.7,0.5v2.9H16c1.9,0,2.9-0.5,2.9-3.5c0-1-0.3-1.8-0.5-2.2c-0.4-0.8-0.8-0.9-2.5-0.9H13
			c-1,0-1.9-0.8-1.9-1.8v-3c0-1.2,1-1.9,1.9-1.9h3c2.3,0,2.5-1.4,2.5-2.9c0-2.2-0.8-3.2-2.5-3.2H8c-0.4,0-0.7-0.3-0.7-0.7V7.4
			C7.3,7,7.6,6.7,8,6.7h7.9c3.6,0,5.8,0,7.7,2.4c1.4,1.6,2,3.6,2,6.3c0,3.3-0.9,5.5-2.7,6.7c1.7,1,3.6,3.1,3.6,7.8
			c0,3.5-1.3,5.6-2.5,6.9C22,39,18.5,39,16.9,39z M7.5,15.6v22.7c0,0.3,0.2,0.5,0.5,0.5h8.9c1.6,0,5,0,6.8-2.1
			c1.1-1.2,2.4-3.3,2.4-6.7c0-4.7-2-6.8-3.6-7.7l-0.2-0.1l0.2-0.1c1.9-1.1,2.8-3.3,2.8-6.6c0-2.6-0.6-4.6-1.9-6.2
			C21.5,7,19.4,7,15.9,7H8C7.7,7,7.5,7.2,7.5,7.4v4.9c0,0.3,0.2,0.5,0.5,0.5h7.9c1.8,0,2.7,1.2,2.7,3.5c0,1.5-0.2,3.1-2.7,3.1h-3
			c-0.8,0-1.6,0.6-1.6,1.6v3c0,0.9,0.7,1.6,1.6,1.6h2.9c1.7,0,2.2,0.1,2.8,1c0.3,0.5,0.6,1.3,0.6,2.4c0,3.1-1.1,3.7-3.1,3.7h-3.8
			v-3.2c0-0.1-0.2-0.2-0.5-0.2s-0.5,0.1-0.5,0.2v3.6l0,0v0.4H16c2.8,0,4-1.4,4-4.6c0-1-0.2-2-0.7-2.8c-0.8-1.4-1.9-1.5-3.6-1.5h-2.9
			c-0.4,0-0.7-0.3-0.7-0.7v-3c0-0.5,0.4-0.7,0.7-0.7h3c3.7,0,3.7-2.9,3.7-4c0-2.8-1.3-4.4-3.7-4.4H8.4V7.9h7.5c3.5,0,5.2,0,6.8,2
			c0.7,0.9,1.7,2.5,1.7,5.6c0,4.9-2.1,5.8-3.3,6.4c-0.2,0.1-0.2,0.3-0.2,0.4c0,0.2,0.1,0.3,0.3,0.4c1.1,0.4,4.1,1.6,4.1,7.4
			c0,3.1-1.2,5-2.1,6.1C21.6,38,18.5,38,17,38H8.4V16.5h3.2c0.1,0,0.2-0.2,0.2-0.5s-0.1-0.5-0.2-0.5H7.5V15.6z"/>
	</g>
	<g>
		<path class="st3" d="M54.1,38.9c-0.3,0-0.6-0.3-0.6-0.6s0.3-0.6,0.6-0.6h12.5v-4.5h-10c-1.4,0-3-0.4-3-3.3V7.4
			c0-0.3,0.3-0.6,0.6-0.6h5.9c0.3,0,0.6,0.3,0.6,0.6v21.4c0,0.3-0.3,0.6-0.6,0.6s-0.6-0.3-0.6-0.6V7.9h-4.7v21.9
			c0,2,0.7,2.1,1.9,2.1h10.6c0.3,0,0.6,0.3,0.6,0.6v5.7c0,0.3-0.3,0.6-0.6,0.6H54.1V38.9z"/>
		<path class="st3" d="M67.2,39H54.1c-0.4,0-0.7-0.3-0.7-0.7s0.3-0.7,0.7-0.7h12.4v-4.3h-9.9c-1.4,0-3.2-0.4-3.2-3.4V7.4
			c0-0.4,0.3-0.7,0.7-0.7H60c0.4,0,0.7,0.3,0.7,0.7v21.4c0,0.4-0.3,0.7-0.7,0.7s-0.7-0.3-0.7-0.7V8.1h-4.5v21.7c0,1.9,0.7,2,1.8,2
			h10.6c0.4,0,0.7,0.3,0.7,0.7v5.7C67.9,38.7,67.5,39,67.2,39z M54.1,37.8c-0.2,0-0.5,0.2-0.5,0.5s0.2,0.5,0.5,0.5h13.1
			c0.3,0,0.5-0.2,0.5-0.5v-5.7c0-0.3-0.2-0.5-0.5-0.5H56.5c-1.2,0-2-0.2-2-2.3v-22h5V8v20.9c0,0.3,0.2,0.5,0.5,0.5
			c0.2,0,0.5-0.2,0.5-0.5V7.5C60.5,7.2,60.3,7,60,7h-5.9c-0.2,0-0.5,0.2-0.5,0.5v22.4c0,2.8,1.6,3.2,2.9,3.2h10.2v4.8L54.1,37.8
			L54.1,37.8z"/>
	</g>
	<g>
		<path class="st3" d="M92.2,22.5c0,6.7-1.4,11.4-4.4,14.2c-1.1,1-3.1,2.1-6.3,2.1h-7.7c-0.3,0-0.6-0.3-0.6-0.6s0.3-0.6,0.6-0.6h7.7
			c2.8,0,4.6-1,5.5-1.8c2.7-2.6,4.1-7,4.1-13.4c0-4.3-0.7-10-4.1-12.6C84.8,8.2,82.5,8,79.3,8h-5v22.1c0,2,0.7,2.1,1.9,2.1h3.3l0,0
			h1.7c1,0,2.3-0.2,2.8-1.6c0.6-1.7,0.7-5.7,0.7-7.6c0-9.7-1.6-9.7-3.5-9.7H80V29c0,0.3-0.2,0.6-0.5,0.6s-0.6-0.3-0.6-0.6V12.8
			c0-0.3,0.3-0.6,0.6-0.6h1.7c3.2,0,4.6,1.6,4.6,10.8c0,0.2,0,5.7-0.8,8c-0.4,1.1-1.3,2.4-3.9,2.4h-1.7H76c-1.4,0-3-0.4-3-3.3V7.4
			c0-0.3,0.3-0.6,0.6-0.6h5.5c3.4,0,6,0.1,8.4,2C90.6,11.3,92.2,16,92.2,22.5z"/>
		<path class="st3" d="M81.5,39h-7.7c-0.4,0-0.7-0.3-0.7-0.7s0.3-0.7,0.7-0.7h7.7c3,0,4.7-1.1,5.5-1.8c2.7-2.6,4-7,4-13.3
			c0-4.3-0.7-9.9-4.1-12.5c-2.1-1.7-4.4-1.8-7.6-1.8h-4.8v22c0,1.9,0.7,2,1.8,2h5.1c1,0,2.2-0.2,2.7-1.5c0.6-1.6,0.7-5.5,0.7-7.6
			c0-4.4-0.3-7.1-1-8.4c-0.6-1.1-1.4-1.1-2.3-1.1l0,0h-1.1v15.6c0,0.4-0.3,0.7-0.7,0.7c-0.4,0-0.7-0.3-0.7-0.7V12.8
			c0-0.4,0.3-0.7,0.7-0.7h1.7c3.3,0,4.8,1.6,4.8,11c0,0.1,0,5.6-0.8,8c-0.4,1.2-1.4,2.5-4,2.5h-5.1c-1.4,0-3.2-0.4-3.2-3.4V7.4
			c0-0.4,0.3-0.7,0.7-0.7h5.5c3.4,0,6,0.1,8.5,2.1c3,2.4,4.6,7.1,4.6,13.7c0,6.8-1.5,11.5-4.5,14.3C86.8,37.8,84.8,39,81.5,39z
			 M73.7,37.8c-0.3,0-0.5,0.2-0.5,0.5s0.2,0.5,0.5,0.5h7.7c3.2,0,5.2-1.1,6.2-2.1c2.9-2.8,4.4-7.4,4.4-14.1c0-6.5-1.6-11.2-4.5-13.5
			c-2.4-1.9-4.9-2-8.3-2h-5.5c-0.3,0-0.5,0.2-0.5,0.5v22.7c0,2.8,1.6,3.2,2.9,3.2h5.1c2,0,3.2-0.8,3.8-2.3c0.7-2.3,0.8-7.9,0.8-7.9
			c0-10-1.8-10.7-4.5-10.7h-1.7c-0.2,0-0.5,0.2-0.5,0.5v16.3c0,0.3,0.2,0.5,0.5,0.5c0.2,0,0.4-0.2,0.4-0.5V13.3h1.3l0,0
			c0.9,0,1.9,0,2.5,1.3c0.7,1.4,1,4.1,1,8.5c0,0.6,0,5.6-0.7,7.7c-0.5,1.5-1.9,1.7-2.9,1.7h-5.1c-1.2,0-2-0.2-2-2.3V7.9h5.1
			c3.3,0,5.6,0.1,7.8,1.9c3.5,2.7,4.2,8.4,4.2,12.7c0,6.4-1.3,10.8-4.1,13.5c-0.8,0.7-2.5,1.9-5.6,1.9h-7.8V37.8z"/>
	</g>
	<g>
		<path class="st3" d="M98.2,38.9c-0.3,0-0.6-0.3-0.6-0.6V16.9c0-2.9,1.6-3.3,3-3.3h0.7c0.3,0,0.6,0.3,0.6,0.6s-0.3,0.6-0.6,0.6
			h-0.7c-1.1,0-1.9,0.2-1.9,2.1v20.8h4.6V8h-4.6v2.9c0,0.3-0.3,0.6-0.6,0.6s-0.6-0.3-0.6-0.6V7.4c0-0.3,0.3-0.6,0.6-0.6h5.8
			c0.3,0,0.6,0.3,0.6,0.6v30.8c0,0.3-0.3,0.6-0.6,0.6h-5.7V38.9z"/>
		<path class="st3" d="M103.9,39h-5.8c-0.4,0-0.7-0.3-0.7-0.7V16.9c0-3.1,1.8-3.4,3.1-3.4h0.7c0.4,0,0.7,0.3,0.7,0.7
			s-0.3,0.7-0.7,0.7h-0.7c-1.1,0-1.7,0.1-1.7,2v20.7h4.4V8.1h-4.4v2.8c0,0.4-0.3,0.7-0.7,0.7s-0.7-0.3-0.7-0.7V7.4
			c0-0.4,0.3-0.7,0.7-0.7h5.8c0.4,0,0.7,0.3,0.7,0.7v30.8C104.6,38.7,104.3,39,103.9,39z M100.6,13.7c-1.3,0-2.9,0.4-2.9,3.2v21.4
			c0,0.3,0.2,0.5,0.5,0.5h5.8c0.3,0,0.5-0.2,0.5-0.5V7.4c0-0.3-0.2-0.5-0.5-0.5h-5.8c-0.3,0-0.5,0.2-0.5,0.5v3.5
			c0,0.3,0.2,0.5,0.5,0.5s0.5-0.2,0.5-0.5v-3h4.9v29.9h-4.9V16.9c0-2.1,0.9-2.3,2-2.3h0.7c0.3,0,0.5-0.2,0.5-0.5s-0.2-0.5-0.5-0.5
			h-0.8V13.7z"/>
	</g>
	<g>
		<path class="st6" d="M133.8,7.4v30.8c0,0.3-0.3,0.6-0.6,0.6h-6c-0.3,0-0.6-0.3-0.6-0.6V27.4v-0.7c0-2.3,0-3.3-1.1-4.7l-10-12.4
			c-0.1-0.1-0.2-0.3-0.4-0.4c-0.6-0.7-0.9-1.2-2.4-1.2H111v29.7h4.5V18.4l0,0c0-0.1,0-0.2,0-0.2c0-0.1,0.1-0.1,0.2-0.2
			s0.2-0.1,0.2-0.1s0.1,0,0.2,0s0.2,0,0.2,0.1c0.1,0,0.2,0.1,0.2,0.1l0,0l5.2,6.3c0.2,0.3,0.2,0.6-0.1,0.8c-0.3,0.2-0.6,0.2-0.8-0.1
			l-4.1-5.1v18.3c0,0.3-0.3,0.6-0.6,0.6h-5.7c-0.3,0-0.6-0.3-0.6-0.6V7.4c0-0.3,0.3-0.6,0.6-0.6h2.3c2,0,2.6,0.8,3.3,1.6
			c0.1,0.1,0.2,0.3,0.4,0.4l10.1,12.4c1.4,1.7,1.4,3.1,1.4,5.4v0.7v10.3h4.8V8H131c-1.8,0-1.8,0-2.3,0.9c-0.4,0.7-3.3,5.5-3.4,5.6
			c-0.2,0.3-0.5,0.4-0.8,0.2s-0.4-0.5-0.2-0.8c0.1-0.2,2.9-4.9,3.4-5.6c0.9-1.4,1.4-1.4,3.3-1.4h2.2C133.6,6.9,133.8,7.1,133.8,7.4z
			"/>
		<path class="st6" d="M133.2,39h-6c-0.4,0-0.7-0.3-0.7-0.7V26.5c0-2.2,0-3.1-1.1-4.4l-10-12.4c-0.1-0.1-0.2-0.2-0.2-0.3
			s-0.1-0.1-0.1-0.2c-0.6-0.7-0.9-1.1-2.3-1.1h-1.6v29.4h4.3V18.4c0-0.1,0-0.2,0-0.3c0-0.1,0.1-0.2,0.2-0.2c0,0,0.2-0.2,0.3-0.2l0,0
			h0.1c0.1,0,0.2,0,0.3,0.1l0,0c0.1,0,0.2,0.1,0.2,0.2l0,0l5.1,6.3c0.1,0.2,0.2,0.4,0.1,0.5c0,0.2-0.1,0.3-0.3,0.4
			c-0.3,0.2-0.8,0.2-1-0.1l-3.9-4.8v17.9c0,0.4-0.3,0.7-0.7,0.7h-5.7c-0.4,0-0.7-0.3-0.7-0.7V7.4c0-0.4,0.3-0.7,0.7-0.7h2.3
			c2,0,2.7,0.8,3.3,1.5l0.1,0.1c0.1,0.1,0.2,0.3,0.3,0.4l10.1,12.5c1.4,1.7,1.4,3.1,1.4,5.5v0.7v10.2h4.5V8.1h-1.7
			c-1.5,0-1.5,0-2,0.8c-0.3,0.4-1.3,2.2-2.2,3.7c-1.1,1.9-1.1,1.9-1.2,1.9c-0.1,0.1-0.2,0.2-0.4,0.3c-0.2,0-0.4,0-0.5-0.1
			c-0.3-0.2-0.4-0.6-0.2-0.9c0.1-0.1,1-1.7,1.9-3.1c0.7-1.1,1.3-2.2,1.5-2.5c0.9-1.5,1.5-1.5,3.4-1.5h2.2c0.4,0,0.7,0.3,0.7,0.7
			v30.8C133.9,38.7,133.6,39,133.2,39z M110.9,7.9h1.9c1.5,0,1.9,0.5,2.5,1.2c0.1,0.1,0.1,0.1,0.2,0.2c0.1,0.1,0.1,0.2,0.2,0.3
			l10,12.4c1.1,1.3,1.1,2.4,1.1,4.6v11.8c0,0.3,0.2,0.5,0.5,0.5h6c0.3,0,0.5-0.2,0.5-0.5v-31c0-0.2-0.2-0.5-0.5-0.5H131
			c-1.9,0-2.3,0-3.2,1.3c-0.2,0.3-0.8,1.4-1.5,2.5c-0.9,1.5-1.8,3-1.9,3.1c-0.1,0.2,0,0.5,0.2,0.6c0.1,0.1,0.2,0.1,0.3,0
			c0.1,0,0.2-0.1,0.3-0.2c0-0.1,0.6-0.9,1.1-1.9c0.9-1.5,2-3.3,2.2-3.7c0.6-0.9,0.7-0.9,2.2-0.9h2v29.9h-5v-0.1V27.2v-0.7
			c0-2.3,0-3.7-1.3-5.3L116.3,8.9c-0.1-0.1-0.3-0.3-0.4-0.4l-0.1-0.1c-0.6-0.7-1.2-1.5-3.1-1.5h-2.3c-0.3,0-0.5,0.2-0.5,0.5v30.8
			c0,0.3,0.2,0.5,0.5,0.5h5.7c0.3,0,0.5-0.2,0.5-0.5V19.7l4.3,5.4c0.1,0.1,0.2,0.1,0.3,0.2c0.1,0,0.2,0,0.3-0.1
			c0.1-0.1,0.1-0.2,0.2-0.3c0-0.1,0-0.2-0.1-0.3l-5.2-6.4l0,0h-0.1l0,0c-0.1,0-0.1-0.1-0.2-0.1l0,0H116c0,0-0.1,0-0.1,0.1l0,0
			l-0.1,0.1c0,0,0,0.1,0,0.2V38H111V7.9H110.9z"/>
	</g>
	<g>
		<path class="st6" d="M161.2,38.6c-0.1,0.1-0.3,0.2-0.4,0.2H155h-0.2c-0.1,0-0.2-0.1-0.2-0.1c-0.1-0.1-0.1-0.1-0.1-0.2
			c0,0-0.1-0.1-0.1-0.2l-0.8-4.4l-0.3-1.8h-2.5c-0.3,0-0.6-0.3-0.6-0.6c0-0.3,0.3-0.6,0.6-0.6h2.9c0.3,0,0.6,0.2,0.6,0.5l0.4,2.2
			l0.7,4h4.6l-2.6-10.9L152.9,8h-5.3l-4.5,18.8l-2.6,10.9h4.7l1.6-8.8c0.3-1.8,1-2.8,3.4-2.8h0.1h0.1h1.8l-1.8-9.7l-1.2,6.8
			c-0.1,0.3-0.4,0.5-0.7,0.4S148,23.3,148,23l1.8-9.9c0-0.3,0.3-0.4,0.6-0.4s0.5,0.2,0.5,0.4l2.5,13.4v0.1v0.2
			c0,0.1-0.1,0.2-0.1,0.2c0,0.1-0.1,0.1-0.2,0.2c-0.1,0-0.1,0.1-0.2,0.1h-0.1h-2.5h-0.1h-0.1c-1.6,0-2,0.4-2.2,1.9l-1.7,9.2
			c0,0,0,0.1,0,0.2c0,0.1-0.1,0.2-0.2,0.2c-0.1,0.1-0.2,0.1-0.2,0.1h-0.2h-5.9c-0.2,0-0.4-0.1-0.4-0.2c-0.1-0.1-0.2-0.3-0.1-0.5
			l2.8-11.6l4.6-19.2c0.1-0.3,0.3-0.4,0.6-0.4h6.2c0.3,0,0.5,0.2,0.5,0.4l4.6,19.2l2.8,11.6C161.3,38.2,161.3,38.5,161.2,38.6z"/>
		<path class="st6" d="M160.8,39h-6c-0.1,0-0.2-0.1-0.2-0.1s0,0-0.1,0l0,0c-0.1-0.1-0.1-0.2-0.2-0.2v-0.1l0,0v-0.1l-1.1-6.1h-2.4
			c-0.4,0-0.7-0.3-0.7-0.7c0-0.4,0.3-0.7,0.7-0.7h2.9c0.2,0,0.4,0,0.5,0.2c0.1,0.1,0.2,0.3,0.2,0.4l0.4,2.2l0.7,3.9h4.4l-7.1-29.4
			h-5.1L143.2,27l-2.6,10.8h4.4l1.6-8.7c0.3-1.8,1-3,3.5-3h1.8l-1.6-8.9l-1.1,6.1c0,0.2-0.1,0.3-0.3,0.4s-0.3,0.1-0.5,0.1
			s-0.4-0.2-0.5-0.3c-0.1-0.1-0.1-0.3-0.1-0.5l1.8-9.9c0-0.3,0.3-0.5,0.7-0.5c0.3,0,0.6,0.2,0.7,0.6l2.5,13.5v0.2
			c0,0.1-0.1,0.2-0.1,0.2s0,0,0,0.1c-0.1,0.1-0.2,0.2-0.2,0.2c-0.1,0-0.2,0.1-0.2,0.1h-2.7c-1.6,0-1.9,0.4-2.1,1.8l-1.7,9.2
			c0,0,0,0,0,0.1c0,0,0,0,0,0.1l0,0c0,0-0.1,0.2-0.2,0.2c-0.1,0-0.2,0.2-0.3,0.2h-6c-0.2,0-0.4-0.1-0.5-0.3s-0.2-0.4-0.2-0.6
			l7.4-30.8c0.1-0.3,0.4-0.5,0.7-0.5h6.2c0.3,0,0.6,0.2,0.7,0.5l4.6,19.2l2.8,11.6c0,0.1,0,0.4-0.1,0.6C161.2,38.9,161,39,160.8,39z
			 M154.7,38.6C154.7,38.7,154.7,38.7,154.7,38.6c0.1,0.1,0.1,0.1,0.2,0.1h0.1h5.8c0.1,0,0.3-0.1,0.3-0.2c0-0.1,0.1-0.3,0.1-0.4
			l-2.8-11.6l-4.6-19.2c-0.1-0.2-0.2-0.4-0.4-0.4h-6.2c-0.2,0-0.4,0.2-0.5,0.4l-7.4,30.8c0,0.1,0,0.3,0.1,0.4
			c0.1,0.1,0.2,0.2,0.3,0.2h6c0,0,0.1,0,0.1-0.1l0,0l0.1-0.1c0,0,0,0,0-0.1c0,0,0,0,0-0.1l1.7-9.3c0.3-1.5,0.7-2,2.3-2h0.1h0.1h2.5
			h0.1c0.1,0,0.1-0.1,0.1-0.1s0-0.1,0.1-0.1c0,0,0-0.1,0.1-0.1v-0.2l-2.5-13.4c0-0.2-0.2-0.3-0.4-0.3s-0.4,0.1-0.5,0.3L148,23
			c0,0.1,0,0.2,0.1,0.3c0.1,0.1,0.2,0.2,0.3,0.2s0.2,0,0.3-0.1s0.2-0.2,0.2-0.3l1.4-7.4l1.9,10.5h-2.1c-2.3,0-2.9,1.1-3.2,2.7
			l-1.6,8.9h-4.9l2.7-11.1l4.5-18.9h5.5v0.1l7.2,29.8h-4.9v-0.1l-0.7-4l-0.4-2.2c0-0.1-0.1-0.2-0.2-0.3c-0.1-0.1-0.2-0.1-0.3-0.1h-3
			c-0.3,0-0.5,0.2-0.5,0.5s0.2,0.5,0.5,0.5h2.6l0.3,1.9l0.8,4.4l0,0v0.1C154.6,38.6,154.6,38.6,154.7,38.6z"/>
	</g>
	<g>
		<path class="st6" d="M167.1,8v29.7h4.8V18.6v-0.1c0-0.1,0-0.2,0.1-0.2c0-0.1,0.1-0.1,0.2-0.2c0.1,0,0.1-0.1,0.2-0.1h0.2
			c0.1,0,0.2,0,0.2,0.1c0.1,0,0.1,0.1,0.2,0.2l0.1,0.1l8.9,17l0.6,1c0.6,0.9,1.2,1.4,3,1.4h2c0.3,0,0.5,0.3,0.5,0.6
			s-0.2,0.6-0.5,0.6h-2c-1.9,0-3.1-0.6-4-2l-0.6-1l0,0l-8-15.1v17.4c0,0.3-0.3,0.6-0.6,0.6h-6c-0.2,0-0.3-0.1-0.4-0.2
			c-0.1-0.1-0.2-0.3-0.2-0.4V7.4c0-0.3,0.3-0.6,0.6-0.6h4.5c2.1,0,3,0.9,3.8,2.4l12,21.8V8h-5v6.7c0,0.3-0.3,0.6-0.6,0.6
			s-0.6-0.3-0.6-0.6V7.4c0-0.3,0.3-0.6,0.6-0.6h6.1c0.3,0,0.5,0.3,0.5,0.6v25.8v0.1c0,0.1,0,0.2-0.1,0.2c0,0.1-0.1,0.1-0.2,0.2
			c-0.1,0-0.1,0.1-0.2,0.1H187c-0.1,0-0.2,0-0.2-0.1c-0.1,0-0.2-0.1-0.2-0.2v-0.1L173.9,9.8C173.2,8.5,172.6,8,171,8H167.1z"/>
		<path class="st6" d="M187.5,39h-2c-2,0-3.1-0.6-4.1-2l-0.7-1l0,0l-7.6-14.5v16.9c0,0.4-0.3,0.7-0.7,0.7h-6c-0.2,0-0.4-0.1-0.5-0.2
			c-0.1-0.1-0.2-0.3-0.2-0.5v-31c0-0.4,0.3-0.7,0.7-0.7h4.5c2.1,0,3.1,0.9,3.9,2.4l11.8,21.4V8.1H182v6.6c0,0.4-0.3,0.7-0.7,0.7
			s-0.7-0.3-0.7-0.7V7.4c0-0.4,0.3-0.7,0.7-0.7h6.1c0.4,0,0.7,0.3,0.7,0.7v25.9c0,0.1,0,0.2-0.1,0.3c0,0.1-0.1,0.2-0.2,0.2l0,0
			c-0.1,0-0.1,0.1-0.2,0.1h-0.2c-0.1,0-0.2,0-0.3-0.1c0,0-0.2-0.1-0.2-0.2v-0.1L173.8,9.8c-0.7-1.2-1.2-1.7-2.7-1.7h-3.8v29.4h4.5
			v-19c0-0.1,0-0.2,0.1-0.3c0-0.1,0.1-0.2,0.2-0.2l0,0c0.1,0,0.1-0.1,0.2-0.1h0.2c0.1,0,0.2,0,0.3,0.1c0.1,0,0.2,0.1,0.2,0.2
			l0.1,0.1l8.9,17l0.6,1c0.6,0.9,1.2,1.4,2.9,1.4h2c0.4,0,0.7,0.3,0.7,0.7S187.8,39,187.5,39z M180.9,35.9l0.6,1
			c0.9,1.4,2,1.9,3.9,1.9h2c0.2,0,0.4-0.2,0.4-0.5s-0.2-0.5-0.4-0.5h-2c-1.8,0-2.5-0.5-3.1-1.5l-0.6-1l-8.9-17l-0.1-0.1l-0.1-0.1
			c-0.1,0-0.1,0-0.2,0h-0.2c0,0,0,0-0.1,0H172l-0.1,0.1c0,0.1,0,0.1,0,0.2v19.3h-5V7.9h4.1c1.6,0,2.2,0.6,3,1.8l13.1,23.8l0.1,0.1
			c0.1,0,0.1,0.1,0.2,0.1h0.2c0,0,0,0,0.1,0h0.1l0.1-0.1c0-0.1,0.1-0.1,0.1-0.2v-26c0-0.3-0.2-0.5-0.4-0.5h-6.1
			c-0.2,0-0.5,0.2-0.5,0.5v7.3c0,0.3,0.2,0.5,0.5,0.5s0.5-0.2,0.5-0.5V7.9h5.2v23.6L174.7,9.3C173.9,7.9,173,7,171,7h-4.5
			c-0.2,0-0.5,0.2-0.5,0.5v30.8c0,0.1,0,0.3,0.1,0.3c0.1,0.1,0.2,0.1,0.3,0.1h6c0.3,0,0.5-0.2,0.5-0.5V20.4L180.9,35.9z"/>
	</g>
</g>
<g class="st1">
	<path class="st7" d="M2,38.9L2,38.9z"/>
</g>
</svg>
